# xmcd
#
# Track frame offsets:
#	150
#	18830
#	33619
#	47737
#	71199
#	83549
#	104035
#	117534
#	133691
#	149491
#	162950
#	176596
#	190982
#	205856
#	220500
#	236610
#	252490
#	268990
#	282825
#	296671
#	313913
#
# Disc length: 4395 seconds
#
# Revision: 0
# Processed by: cddbd v1.5.2PL0 Copyright (c) Steve Scherf et al.
# Submitted via: EasyCDDAExtractor 11.0.2.1
#
DISCID=4e112915
DTITLE=Various Artist - The very best of HitBox 2007
DYEAR=2007
DGENRE=Pop
TTITLE0=Britney Spears - Gimme more
TTITLE1=Beyoncé and Shakira - Beautiful liar
TTITLE2=Gwen Stefani - Wind it up
TTITLE3=Kanye West - Stronger
TTITLE4=Milow - You don't know
TTITLE5=Pink - Dear Mr. President
TTITLE6=Alex Gaudino FT Crystal Waters - Destination Calabria
TTITLE7=Avril Lavigne - Girlfriend
TTITLE8=Sunrise Avenue - Fairytale gone bad
TTITLE9=Tom Helsen - Sun in her eyes
TTITLE10=Dean - So many days
TTITLE11=Camille Jones vs Fedde Le Grand - The creeps
TTITLE12=Eric Prydz vs Floyd - Proper education
TTITLE13=Freemansons Feat. Siedah Garrett - Rain down love
TTITLE14=The Chemical Brothers - Do it again
TTITLE15=Ghosts - The world is outside
TTITLE16=Santana Featuring Chad Kroeger - Into the night
TTITLE17=Milka - Grace Kelly
TTITLE18=Clouseau - Vonken en vuur
TTITLE19=Stan Van Samang - Scars
TTITLE20=Nathalia meets En Vogue - Glamorous
EXTD=
EXTT0=
EXTT1=
EXTT2=
EXTT3=
EXTT4=
EXTT5=
EXTT6=
EXTT7=
EXTT8=
EXTT9=
EXTT10=
EXTT11=
EXTT12=
EXTT13=
EXTT14=
EXTT15=
EXTT16=
EXTT17=
EXTT18=
EXTT19=
EXTT20=
PLAYORDER=
